<svg xmlns="http://www.w3.org/2000/svg" viewBox="0 0 240 240" fill="none">
  <defs>
    <linearGradient id="cg" x1="0.3" y1="0" x2="0.7" y2="1" gradientUnits="objectBoundingBox">
      <stop offset="0%" stop-color="#22d3ee"/>
      <stop offset="38%" stop-color="#3b82f6"/>
      <stop offset="100%" stop-color="#1d4ed8"/>
    </linearGradient>
    <linearGradient id="ng" x1="155" y1="50" x2="210" y2="130" gradientUnits="userSpaceOnUse">
      <stop offset="0%" stop-color="#3b82f6"/>
      <stop offset="100%" stop-color="#7c3aed"/>
    </linearGradient>
  </defs>
  <!-- Background circle -->
  <circle cx="120" cy="120" r="120" fill="#04040f"/>
  <!-- C ring -->
  <path d="M 172 46 A 90 90 0 1 1 172 194 L 153 168 A 58 58 0 1 0 153 73 Z" fill="url(#cg)"/>
  <!-- L shape -->
  <rect x="82" y="74" width="16" height="100" rx="2" fill="white"/>
  <rect x="82" y="158" width="76" height="16" rx="2" fill="white"/>
  <!-- Circuit traces -->
  <g stroke="#22d3ee" stroke-linecap="round" stroke-width="1.8">
    <line x1="35" y1="91" x2="10" y2="91"/>
    <line x1="22" y1="91" x2="22" y2="78"/>
    <circle cx="22" cy="78" r="3" fill="#22d3ee" stroke="none"/>
    <circle cx="10" cy="91" r="3" fill="#22d3ee" stroke="none"/>
    <line x1="31" y1="134" x2="7" y2="134"/>
    <line x1="19" y1="134" x2="19" y2="147"/>
    <circle cx="19" cy="147" r="3" fill="#22d3ee" stroke="none"/>
    <circle cx="7" cy="134" r="3" fill="#22d3ee" stroke="none"/>
  </g>
  <!-- Neural network nodes -->
  <circle cx="170" cy="60" r="5.5" fill="#3b82f6"/>
  <circle cx="196" cy="76" r="4.5" fill="#5b6cf5"/>
  <circle cx="183" cy="96" r="5.5" fill="#6d53ec"/>
  <circle cx="208" cy="100" r="4" fill="#7c3aed"/>
  <circle cx="192" cy="118" r="5" fill="#6d53ec"/>
  <circle cx="162" cy="112" r="4" fill="#3b82f6"/>
</svg>
